<?xml version="1.0"?><svg id="Layer_1_1_" style="enable-background:new 0 0 64 64;" version="1.1" viewBox="0 0 64 64" xml:space="preserve" xmlns="http://www.w3.org/2000/svg" xmlns:xlink="http://www.w3.org/1999/xlink"><g><path d="M12,25h20c1.654,0,3-1.346,3-3v-8c0-1.654-1.346-3-3-3H12c-1.654,0-3,1.346-3,3v8   C9,23.654,10.346,25,12,25z M11,14c0-0.552,0.449-1,1-1h20c0.551,0,1,0.448,1,1v8c0,0.552-0.449,1-1,1H12c-0.551,0-1-0.448-1-1V14z   " style="fill:#3F3A34;"/><path d="M61.583,12.659L55,3.256l-6.583,9.403C47.49,13.984,47,15.539,47,17.157   C47,21.481,50.518,25,54.843,25h0.314C59.482,25,63,21.481,63,17.157C63,15.539,62.51,13.984,61.583,12.659z M55.157,23h-0.314   C51.621,23,49,20.379,49,17.157c0-1.205,0.365-2.364,1.056-3.352L55,6.744l4.944,7.062C60.635,14.793,61,15.952,61,17.157   C61,20.379,58.379,23,55.157,23z" style="fill:#3F3A34;"/><path d="M53,32.764V58c0,1.654-1.346,3-3,3s-3-1.346-3-3V42c0-2.757-2.243-5-5-5h-3V9h2c1.103,0,2-0.897,2-2   V3c0-1.103-0.897-2-2-2H3C1.897,1,1,1.897,1,3v4c0,1.103,0.897,2,2,2h2v54h34V39h3c1.654,0,3,1.346,3,3v16c0,2.757,2.243,5,5,5   s5-2.243,5-5V40h2c1.103,0,2-0.897,2-2v-4c0-1.103-0.897-2-2-2h-1.382l1-2H60v-2h-4.618L53,32.764z M3,7V3h38l0.001,4H39H5H3z    M37,61H7V9h30V61z M57,38h-2v-4h2V38z" style="fill:#3F3A34;"/><rect height="2" style="fill:#3F3A34;" width="2" x="11" y="27"/><rect height="2" style="fill:#3F3A34;" width="2" x="15" y="27"/><rect height="2" style="fill:#3F3A34;" width="2" x="19" y="27"/><rect height="2" style="fill:#3F3A34;" width="2" x="23" y="27"/><rect height="2" style="fill:#3F3A34;" width="2" x="27" y="27"/><rect height="2" style="fill:#3F3A34;" width="2" x="31" y="27"/><rect height="2" style="fill:#3F3A34;" width="2" x="13" y="19"/><rect height="2" style="fill:#3F3A34;" width="14" x="17" y="19"/></g></svg>