<?xml version="1.0"?><svg xmlns="http://www.w3.org/2000/svg" width="100" height="100" viewBox="0 0 100 100" fill="none"><path fill-rule="evenodd" clip-rule="evenodd" d="M56.0328 17.7086H14.9918C12.9698 17.6942 11.0242 18.4813 9.58097 19.8982C8.13386 21.3189 7.31042 23.2562 7.29182 25.2841L7.29169 25.3127V65.6252L7.29182 65.6539C7.31042 67.6817 8.13386 69.6191 9.58097 71.0398C11.0242 72.4566 12.9698 73.2438 14.9918 73.2294H15.458C15.9966 75.3224 17.0899 77.2794 18.6909 78.8687C22.2129 82.3651 27.4965 83.3909 32.071 81.4666C35.6512 79.9606 38.2434 76.8804 39.1838 73.2335H58.9339C59.4729 75.325 60.5658 77.2805 62.1657 78.8687C65.6878 82.3651 70.9713 83.3909 75.5459 81.4666C79.2313 79.9163 81.8698 76.698 82.7372 72.9106C85.0905 72.3721 87.2642 71.1758 88.9904 69.434C91.387 67.0157 92.7244 63.7443 92.7083 60.3397C92.7074 60.1555 92.6902 59.9716 92.657 59.7904L90.4498 47.7643C90.4328 47.6301 90.4072 47.4985 90.3736 47.3702L88.6833 38.1466C88.6874 34.8241 87.3786 31.6285 85.0336 29.2613C82.6135 26.8182 79.3005 25.4703 75.8631 25.5293H63.7167V25.3211L63.7166 25.2981C63.6856 21.0819 60.2476 17.6874 56.0328 17.7086ZM76.7938 69.9901C76.7922 70.0338 76.7915 70.0778 76.7917 70.1221C76.7919 70.169 76.7931 70.2156 76.7953 70.262C76.7611 72.6406 75.3227 74.78 73.1224 75.7056C70.8819 76.6481 68.294 76.1456 66.5689 74.4332C64.8438 72.7207 64.3224 70.1366 65.2485 67.8891C66.1745 65.6417 68.3651 64.1751 70.7958 64.175L70.8072 64.175C72.3897 64.1692 73.9096 64.7922 75.0327 65.9071C76.1251 66.9915 76.7549 68.4547 76.7938 69.9901ZM82.4743 66.4489C83.2437 66.1183 83.9503 65.6408 84.5511 65.0345C85.7217 63.8534 86.3997 62.2755 86.4548 60.6196L84.7421 51.2878H63.725V60.1718C65.7489 58.7413 68.2026 57.9263 70.7899 57.925C74.0279 57.9146 77.1377 59.1901 79.4359 61.4715C80.8486 62.8739 81.8835 64.5858 82.4743 66.4489ZM33.3157 69.8928C33.3109 69.9641 33.3084 70.036 33.3084 70.1085C33.3084 70.1929 33.3118 70.2764 33.3183 70.3591C33.247 72.6987 31.8179 74.7926 29.6476 75.7056C27.407 76.6481 24.8191 76.1456 23.0941 74.4332C21.369 72.7207 20.8475 70.1366 21.7736 67.8891C22.6997 65.6417 24.8902 64.1751 27.3209 64.175L27.3323 64.175C28.9148 64.1692 30.4348 64.7922 31.5578 65.9071C32.6271 66.9685 33.2532 68.393 33.3157 69.8928ZM39.1557 66.9835H57.475V48.3936C57.4695 48.3174 57.4666 48.2404 57.4666 48.1628V28.6545L57.4667 28.636V25.3355C57.4565 24.5691 56.8295 23.9535 56.0619 23.9585L56.0417 23.9586H14.9792L14.9503 23.9584C14.5801 23.955 14.2237 24.0988 13.9595 24.3582C13.6977 24.6151 13.5477 24.9647 13.5417 25.3312V65.6068C13.5477 65.9733 13.6977 66.3229 13.9595 66.5798C14.2236 66.8392 14.5801 66.983 14.9503 66.9795L14.9792 66.9794H15.4949C15.6291 66.4832 15.7956 65.9918 15.9949 65.508C17.8849 60.9213 22.3546 57.9274 27.3151 57.925C30.5531 57.9146 33.6629 59.1901 35.961 61.4715C37.5079 63.007 38.6018 64.9137 39.1557 66.9835ZM63.7166 45.0378V31.7793H75.8918C75.9124 31.7793 75.933 31.7791 75.9536 31.7787C77.6924 31.7443 79.3694 32.4242 80.5934 33.6598C81.8174 34.8954 82.4814 36.5787 82.4306 38.3172C82.4242 38.5365 82.4409 38.7559 82.4805 38.9718L83.5921 45.0378H63.7166Z" fill="black"/></svg>