<?xml version="1.0"?><svg xmlns="http://www.w3.org/2000/svg" width="100" height="100" viewBox="0 0 100 100" fill="none"><path fill-rule="evenodd" clip-rule="evenodd" d="M21.9757 40.6884L23.4022 36.9018C24.7912 33.4643 26.1854 30.9335 27.9315 29.2513C29.5674 27.6753 31.6618 26.7008 34.871 26.7008H39.9359V40.6886L21.9757 40.6884ZM45.5128 40.6886V26.7008H58.0286C61.2378 26.7008 63.3322 27.6753 64.9681 29.2513C66.7142 30.9335 68.1083 33.4643 69.4974 36.9018L70.9239 40.6884L45.5128 40.6886ZM74.7047 34.9051L76.8834 40.6884L86.9295 40.6887C90.6918 40.6698 93.7607 43.6999 93.7884 47.4634L93.7885 47.484L93.7884 63.9842L93.7884 64.0047C93.775 65.8149 93.0432 67.5456 91.7537 68.8161C90.4671 70.0838 88.7305 70.7898 86.9245 70.7795L80.9673 70.7797C80.1194 74.0277 77.8011 76.7662 74.6066 78.0997C70.5269 79.8028 65.8229 78.8783 62.6911 75.758C61.2804 74.3524 60.314 72.6262 59.8322 70.78L41.0221 70.7799C40.1742 74.0278 37.8559 76.7662 34.6615 78.0997C30.5818 79.8028 25.8777 78.8783 22.746 75.758C21.3351 74.3523 20.3687 72.6259 19.887 70.7795H13.0755C11.2695 70.7898 9.5329 70.0839 8.24624 68.8161C6.95682 67.5456 6.22495 65.8149 6.21162 64.0047L6.21155 63.9842V47.484L6.21162 47.4635C6.22495 45.6533 6.95682 43.9226 8.24624 42.6521C9.53288 41.3843 11.2695 40.6784 13.0754 40.6887L16.0161 40.6885L18.1949 34.9051C18.2025 34.8849 18.2103 34.8648 18.2184 34.8447C19.6842 31.2117 21.4366 27.7645 24.0622 25.235C26.8031 22.5945 30.3126 21.1239 34.871 21.1239H58.0286C62.587 21.1239 66.0965 22.5945 68.8374 25.235C71.463 27.7645 73.2154 31.2117 74.6812 34.8447C74.6893 34.8648 74.6971 34.8849 74.7047 34.9051ZM66.6273 71.8072C65.5974 70.7811 65.0515 69.4057 65.0549 68.0071C65.0565 67.3245 65.189 66.6363 65.46 65.9805C66.286 63.9811 68.236 62.6768 70.3994 62.6768L70.4045 62.6768C71.818 62.6742 73.1746 63.2332 74.176 64.2308C75.1773 65.2285 75.7413 66.583 75.7439 67.9965L75.7439 68.0016C75.7518 70.165 74.4547 72.1198 72.4583 72.9532C70.4618 73.7866 68.1599 73.3342 66.6273 71.8072ZM30.4594 62.6768C31.8729 62.6742 33.2295 63.2332 34.2308 64.2308C35.2321 65.2285 35.7961 66.583 35.7987 67.9965L35.7987 68.0016C35.8067 70.165 34.5096 72.1198 32.5131 72.9532C30.5167 73.7866 28.2148 73.3342 26.6822 71.8072C25.1496 70.2803 24.6888 67.98 25.5148 65.9805C26.3409 63.9811 28.2909 62.6768 30.4543 62.6768L30.4594 62.6768ZM78.1122 60.2801C79.4898 61.6527 80.4629 63.3553 80.9544 65.2028L86.9334 65.2025L86.9542 65.2026C87.2852 65.2051 87.6037 65.0759 87.8395 64.8436C88.0735 64.613 88.2072 64.2994 88.2115 63.9711L88.2115 56.5192L83.2583 56.519C81.7183 56.5189 80.4699 55.2705 80.47 53.7304C80.47 52.1904 81.7185 50.942 83.2586 50.9421L88.2115 50.9423V47.4971C88.2025 46.8116 87.6418 46.2611 86.9554 46.2655L86.9372 46.2656L13.0667 46.2656L13.0458 46.2655C12.7148 46.2631 12.3963 46.3923 12.1605 46.6246C11.9264 46.8552 11.7928 47.1688 11.7885 47.4972V50.9423L16.4283 50.9421C17.9684 50.942 19.2169 52.1904 19.2169 53.7304C19.217 55.2704 17.9686 56.5189 16.4286 56.519L11.7885 56.5192V63.971C11.7928 64.2994 11.9264 64.6129 12.1605 64.8436C12.3963 65.0759 12.7148 65.2051 13.0458 65.2026L13.0665 65.2025H19.9026C20.0245 64.7467 20.177 64.2952 20.3605 63.8511C22.0482 59.7659 26.0318 57.1009 30.4517 57.0998C33.3434 57.0952 36.1185 58.2391 38.1671 60.2801C39.5447 61.6527 40.5178 63.3554 41.0093 65.2029L59.8476 65.203C59.9696 64.747 60.122 64.2954 60.3056 63.8511C61.9933 59.7659 65.9769 57.1009 70.3968 57.0998C73.2885 57.0952 76.0637 58.2391 78.1122 60.2801Z" fill="black"/></svg>